<svg xmlns="http://www.w3.org/2000/svg" xmlns:xlink="http://www.w3.org/1999/xlink" width="500" zoomAndPan="magnify" viewBox="0 0 375 374.999991" height="500" preserveAspectRatio="xMidYMid meet" version="1.0"><path fill="#8cbcc8" d="M 81.976562 60.175781 C 50.667969 60.175781 25.289062 85.554688 25.289062 116.859375 L 25.289062 291.277344 C 25.289062 322.585938 50.667969 347.964844 81.976562 347.964844 L 256.394531 347.964844 C 287.703125 347.964844 313.082031 322.585938 313.082031 291.277344 L 313.082031 134.300781 C 313.082031 127.078125 318.9375 121.222656 326.164062 121.222656 C 333.386719 121.222656 339.246094 127.078125 339.246094 134.300781 L 339.246094 291.277344 C 339.246094 337.035156 302.152344 374.128906 256.394531 374.128906 L 81.976562 374.128906 C 36.21875 374.128906 -0.871094 337.035156 -0.871094 291.277344 L -0.871094 116.859375 C -0.871094 71.105469 36.21875 34.011719 81.976562 34.011719 L 238.953125 34.011719 C 246.179688 34.011719 252.035156 39.867188 252.035156 47.09375 C 252.035156 54.316406 246.179688 60.175781 238.953125 60.175781 Z M 81.976562 60.175781 " fill-opacity="1" fill-rule="evenodd"/><path fill="#f3ad23" d="M 116.859375 68.894531 C 90.371094 68.894531 68.894531 90.371094 68.894531 116.859375 C 68.894531 143.351562 90.371094 164.824219 116.859375 164.824219 C 143.351562 164.824219 164.824219 143.351562 164.824219 116.859375 C 164.824219 90.371094 143.351562 68.894531 116.859375 68.894531 Z M 116.859375 68.894531 " fill-opacity="1" fill-rule="nonzero"/><path fill="#57a773" d="M 245.199219 177.425781 C 226.570312 146.375 181.570312 146.375 162.941406 177.425781 L 147.125 203.785156 C 143.394531 210 134.277344 209.648438 131.035156 203.167969 C 118.007812 177.113281 80.828125 177.113281 67.804688 203.167969 L 43.191406 252.386719 C 27.246094 284.277344 50.4375 321.800781 86.09375 321.800781 L 247.109375 321.800781 C 284.394531 321.800781 307.421875 281.128906 288.238281 249.160156 Z M 245.199219 177.425781 " fill-opacity="1" fill-rule="nonzero"/><path fill="#19a7ce" d="M 339.246094 12.210938 C 339.246094 4.984375 333.386719 -0.871094 326.164062 -0.871094 C 318.9375 -0.871094 313.082031 4.984375 313.082031 12.210938 L 313.082031 34.011719 L 291.277344 34.011719 C 284.054688 34.011719 278.199219 39.867188 278.199219 47.09375 C 278.199219 54.316406 284.054688 60.175781 291.277344 60.175781 L 313.082031 60.175781 L 313.082031 81.976562 C 313.082031 89.203125 318.9375 95.058594 326.164062 95.058594 C 333.386719 95.058594 339.246094 89.203125 339.246094 81.976562 L 339.246094 60.175781 L 361.046875 60.175781 C 368.269531 60.175781 374.128906 54.316406 374.128906 47.09375 C 374.128906 39.867188 368.269531 34.011719 361.046875 34.011719 L 339.246094 34.011719 Z M 339.246094 12.210938 " fill-opacity="1" fill-rule="nonzero"/></svg>