<svg id="visual" viewBox="0 0 960 540" width="960" height="540" xmlns="http://www.w3.org/2000/svg" xmlns:xlink="http://www.w3.org/1999/xlink" version="1.1"><path d="M466 0L445 77L529 154L495 231L486 309L454 386L385 463L501 540L0 540L0 463L0 386L0 309L0 231L0 154L0 77L0 0Z" fill="#ebebd3"></path><path d="M478 0L416 77L345 154L343 231L435 309L466 386L328 463L383 540L0 540L0 463L0 386L0 309L0 231L0 154L0 77L0 0Z" fill="#e6ddb4"></path><path d="M257 0L256 77L398 154L387 231L342 309L374 386L335 463L266 540L0 540L0 463L0 386L0 309L0 231L0 154L0 77L0 0Z" fill="#e4ce96"></path><path d="M246 0L266 77L242 154L208 231L268 309L254 386L311 463L223 540L0 540L0 463L0 386L0 309L0 231L0 154L0 77L0 0Z" fill="#e6bd79"></path><path d="M222 0L210 77L147 154L201 231L197 309L228 386L219 463L153 540L0 540L0 463L0 386L0 309L0 231L0 154L0 77L0 0Z" fill="#e9ab60"></path><path d="M72 0L100 77L104 154L136 231L129 309L137 386L62 463L84 540L0 540L0 463L0 386L0 309L0 231L0 154L0 77L0 0Z" fill="#ee964b"></path></svg>