<svg id="visual" viewBox="0 0 900 600" width="900" height="600" xmlns="http://www.w3.org/2000/svg" xmlns:xlink="http://www.w3.org/1999/xlink" version="1.1"><path d="M506 0L499.8 12.5C493.7 25 481.3 50 452.8 75C424.3 100 379.7 125 375 150C370.3 175 405.7 200 411 225C416.3 250 391.7 275 387 300C382.3 325 397.7 350 412.3 375C427 400 441 425 428.7 450C416.3 475 377.7 500 369.7 525C361.7 550 384.3 575 395.7 587.5L407 600L0 600L0 587.5C0 575 0 550 0 525C0 500 0 475 0 450C0 425 0 400 0 375C0 350 0 325 0 300C0 275 0 250 0 225C0 200 0 175 0 150C0 125 0 100 0 75C0 50 0 25 0 12.5L0 0Z" fill="#ebebd3"></path><path d="M293 0L311.5 12.5C330 25 367 50 383 75C399 100 394 125 396.8 150C399.7 175 410.3 200 396.2 225C382 250 343 275 339.3 300C335.7 325 367.3 350 376.7 375C386 400 373 425 359.5 450C346 475 332 500 329.3 525C326.7 550 335.3 575 339.7 587.5L344 600L0 600L0 587.5C0 575 0 550 0 525C0 500 0 475 0 450C0 425 0 400 0 375C0 350 0 325 0 300C0 275 0 250 0 225C0 200 0 175 0 150C0 125 0 100 0 75C0 50 0 25 0 12.5L0 0Z" fill="#7db3a1"></path><path d="M270 0L267.3 12.5C264.7 25 259.3 50 263.2 75C267 100 280 125 284.2 150C288.3 175 283.7 200 277.5 225C271.3 250 263.7 275 263.8 300C264 325 272 350 271.2 375C270.3 400 260.7 425 267.2 450C273.7 475 296.3 500 311.8 525C327.3 550 335.7 575 339.8 587.5L344 600L0 600L0 587.5C0 575 0 550 0 525C0 500 0 475 0 450C0 425 0 400 0 375C0 350 0 325 0 300C0 275 0 250 0 225C0 200 0 175 0 150C0 125 0 100 0 75C0 50 0 25 0 12.5L0 0Z" fill="#007593"></path><path d="M271 0L273.2 12.5C275.3 25 279.7 50 288 75C296.3 100 308.7 125 315.3 150C322 175 323 200 305 225C287 250 250 275 243.7 300C237.3 325 261.7 350 273.8 375C286 400 286 425 294 450C302 475 318 500 307 525C296 550 258 575 239 587.5L220 600L0 600L0 587.5C0 575 0 550 0 525C0 500 0 475 0 450C0 425 0 400 0 375C0 350 0 325 0 300C0 275 0 250 0 225C0 200 0 175 0 150C0 125 0 100 0 75C0 50 0 25 0 12.5L0 0Z" fill="#083d77"></path><path d="M274 0L271.8 12.5C269.7 25 265.3 50 256.2 75C247 100 233 125 232.5 150C232 175 245 200 245.2 225C245.3 250 232.7 275 233.5 300C234.3 325 248.7 350 250.7 375C252.7 400 242.3 425 242 450C241.7 475 251.3 500 249 525C246.7 550 232.3 575 225.2 587.5L218 600L0 600L0 587.5C0 575 0 550 0 525C0 500 0 475 0 450C0 425 0 400 0 375C0 350 0 325 0 300C0 275 0 250 0 225C0 200 0 175 0 150C0 125 0 100 0 75C0 50 0 25 0 12.5L0 0Z" fill="#083d77"></path><path d="M213 0L206.7 12.5C200.3 25 187.7 50 181.5 75C175.3 100 175.7 125 180.5 150C185.3 175 194.7 200 189.5 225C184.3 250 164.7 275 165.7 300C166.7 325 188.3 350 198.7 375C209 400 208 425 198 450C188 475 169 500 166.2 525C163.3 550 176.7 575 183.3 587.5L190 600L0 600L0 587.5C0 575 0 550 0 525C0 500 0 475 0 450C0 425 0 400 0 375C0 350 0 325 0 300C0 275 0 250 0 225C0 200 0 175 0 150C0 125 0 100 0 75C0 50 0 25 0 12.5L0 0Z" fill="#007593"></path><path d="M136 0L134 12.5C132 25 128 50 124.5 75C121 100 118 125 119.5 150C121 175 127 200 132.7 225C138.3 250 143.7 275 140.8 300C138 325 127 350 120.8 375C114.7 400 113.3 425 115.5 450C117.7 475 123.3 500 122.5 525C121.7 550 114.3 575 110.7 587.5L107 600L0 600L0 587.5C0 575 0 550 0 525C0 500 0 475 0 450C0 425 0 400 0 375C0 350 0 325 0 300C0 275 0 250 0 225C0 200 0 175 0 150C0 125 0 100 0 75C0 50 0 25 0 12.5L0 0Z" fill="#7db3a1"></path><path d="M69 0L71.7 12.5C74.3 25 79.7 50 78.5 75C77.3 100 69.7 125 67 150C64.3 175 66.7 200 72.2 225C77.7 250 86.3 275 88.5 300C90.7 325 86.3 350 81.8 375C77.3 400 72.7 425 71.5 450C70.3 475 72.7 500 74 525C75.3 550 75.7 575 75.8 587.5L76 600L0 600L0 587.5C0 575 0 550 0 525C0 500 0 475 0 450C0 425 0 400 0 375C0 350 0 325 0 300C0 275 0 250 0 225C0 200 0 175 0 150C0 125 0 100 0 75C0 50 0 25 0 12.5L0 0Z" fill="#ebebd3"></path></svg>