<svg id="visual" viewBox="0 0 900 600" width="900" height="600" xmlns="http://www.w3.org/2000/svg" xmlns:xlink="http://www.w3.org/1999/xlink" version="1.1"><path d="M493 0L469.5 12.5C446 25 399 50 383.3 75C367.7 100 383.3 125 388.8 150C394.3 175 389.7 200 406.2 225C422.7 250 460.3 275 476 300C491.7 325 485.3 350 470.2 375C455 400 431 425 417.3 450C403.7 475 400.3 500 401.3 525C402.3 550 407.7 575 410.3 587.5L413 600L0 600L0 587.5C0 575 0 550 0 525C0 500 0 475 0 450C0 425 0 400 0 375C0 350 0 325 0 300C0 275 0 250 0 225C0 200 0 175 0 150C0 125 0 100 0 75C0 50 0 25 0 12.5L0 0Z" fill="#ebebd3"></path><path d="M304 0L317 12.5C330 25 356 50 354.2 75C352.3 100 322.7 125 322.8 150C323 175 353 200 374 225C395 250 407 275 409.7 300C412.3 325 405.7 350 386.3 375C367 400 335 425 335 450C335 475 367 500 374.7 525C382.3 550 365.7 575 357.3 587.5L349 600L0 600L0 587.5C0 575 0 550 0 525C0 500 0 475 0 450C0 425 0 400 0 375C0 350 0 325 0 300C0 275 0 250 0 225C0 200 0 175 0 150C0 125 0 100 0 75C0 50 0 25 0 12.5L0 0Z" fill="#c2d4b9"></path><path d="M324 0L323.8 12.5C323.7 25 323.3 50 321.3 75C319.3 100 315.7 125 315.8 150C316 175 320 200 332.5 225C345 250 366 275 357.2 300C348.3 325 309.7 350 290.7 375C271.7 400 272.3 425 289.7 450C307 475 341 500 347.8 525C354.7 550 334.3 575 324.2 587.5L314 600L0 600L0 587.5C0 575 0 550 0 525C0 500 0 475 0 450C0 425 0 400 0 375C0 350 0 325 0 300C0 275 0 250 0 225C0 200 0 175 0 150C0 125 0 100 0 75C0 50 0 25 0 12.5L0 0Z" fill="#95bea7"></path><path d="M265 0L258.2 12.5C251.3 25 237.7 50 232.7 75C227.7 100 231.3 125 244.5 150C257.7 175 280.3 200 282 225C283.7 250 264.3 275 257 300C249.7 325 254.3 350 260 375C265.7 400 272.3 425 278.2 450C284 475 289 500 282.5 525C276 550 258 575 249 587.5L240 600L0 600L0 587.5C0 575 0 550 0 525C0 500 0 475 0 450C0 425 0 400 0 375C0 350 0 325 0 300C0 275 0 250 0 225C0 200 0 175 0 150C0 125 0 100 0 75C0 50 0 25 0 12.5L0 0Z" fill="#65a79d"></path><path d="M237 0L238.5 12.5C240 25 243 50 241.5 75C240 100 234 125 234.8 150C235.7 175 243.3 200 249.5 225C255.7 250 260.3 275 248.3 300C236.3 325 207.7 350 194.3 375C181 400 183 425 195.3 450C207.7 475 230.3 500 230.7 525C231 550 209 575 198 587.5L187 600L0 600L0 587.5C0 575 0 550 0 525C0 500 0 475 0 450C0 425 0 400 0 375C0 350 0 325 0 300C0 275 0 250 0 225C0 200 0 175 0 150C0 125 0 100 0 75C0 50 0 25 0 12.5L0 0Z" fill="#318f98"></path><path d="M216 0L211.8 12.5C207.7 25 199.3 50 196.7 75C194 100 197 125 194 150C191 175 182 200 176.5 225C171 250 169 275 176.8 300C184.7 325 202.3 350 197.7 375C193 400 166 425 157.8 450C149.7 475 160.3 500 170 525C179.7 550 188.3 575 192.7 587.5L197 600L0 600L0 587.5C0 575 0 550 0 525C0 500 0 475 0 450C0 425 0 400 0 375C0 350 0 325 0 300C0 275 0 250 0 225C0 200 0 175 0 150C0 125 0 100 0 75C0 50 0 25 0 12.5L0 0Z" fill="#007593"></path><path d="M139 0L137 12.5C135 25 131 50 131.5 75C132 100 137 125 132.3 150C127.7 175 113.3 200 111.7 225C110 250 121 275 124.7 300C128.3 325 124.7 350 128.7 375C132.7 400 144.3 425 147.2 450C150 475 144 500 135.2 525C126.3 550 114.7 575 108.8 587.5L103 600L0 600L0 587.5C0 575 0 550 0 525C0 500 0 475 0 450C0 425 0 400 0 375C0 350 0 325 0 300C0 275 0 250 0 225C0 200 0 175 0 150C0 125 0 100 0 75C0 50 0 25 0 12.5L0 0Z" fill="#005a89"></path><path d="M61 0L61.7 12.5C62.3 25 63.7 50 65 75C66.3 100 67.7 125 72.5 150C77.3 175 85.7 200 89.2 225C92.7 250 91.3 275 92.5 300C93.7 325 97.3 350 95.2 375C93 400 85 425 84.7 450C84.3 475 91.7 500 90.5 525C89.3 550 79.7 575 74.8 587.5L70 600L0 600L0 587.5C0 575 0 550 0 525C0 500 0 475 0 450C0 425 0 400 0 375C0 350 0 325 0 300C0 275 0 250 0 225C0 200 0 175 0 150C0 125 0 100 0 75C0 50 0 25 0 12.5L0 0Z" fill="#083d77"></path></svg>