<svg id="visual" viewBox="0 0 900 600" width="900" height="600" xmlns="http://www.w3.org/2000/svg" xmlns:xlink="http://www.w3.org/1999/xlink" version="1.1"><path d="M412 0L421 12.5C430 25 448 50 442.7 75C437.3 100 408.7 125 408 150C407.3 175 434.7 200 431.2 225C427.7 250 393.3 275 382 300C370.7 325 382.3 350 406.8 375C431.3 400 468.7 425 485.8 450C503 475 500 500 498.7 525C497.3 550 497.7 575 497.8 587.5L498 600L0 600L0 587.5C0 575 0 550 0 525C0 500 0 475 0 450C0 425 0 400 0 375C0 350 0 325 0 300C0 275 0 250 0 225C0 200 0 175 0 150C0 125 0 100 0 75C0 50 0 25 0 12.5L0 0Z" fill="#ebebd3"></path><path d="M425 0L428.2 12.5C431.3 25 437.7 50 419.5 75C401.3 100 358.7 125 355.7 150C352.7 175 389.3 200 401.8 225C414.3 250 402.7 275 401 300C399.3 325 407.7 350 399.5 375C391.3 400 366.7 425 370.5 450C374.3 475 406.7 500 411.7 525C416.7 550 394.3 575 383.2 587.5L372 600L0 600L0 587.5C0 575 0 550 0 525C0 500 0 475 0 450C0 425 0 400 0 375C0 350 0 325 0 300C0 275 0 250 0 225C0 200 0 175 0 150C0 125 0 100 0 75C0 50 0 25 0 12.5L0 0Z" fill="#c2d4b9"></path><path d="M343 0L344.8 12.5C346.7 25 350.3 50 338.7 75C327 100 300 125 306 150C312 175 351 200 356 225C361 250 332 275 314.5 300C297 325 291 350 295.2 375C299.3 400 313.7 425 320 450C326.3 475 324.7 500 325 525C325.3 550 327.7 575 328.8 587.5L330 600L0 600L0 587.5C0 575 0 550 0 525C0 500 0 475 0 450C0 425 0 400 0 375C0 350 0 325 0 300C0 275 0 250 0 225C0 200 0 175 0 150C0 125 0 100 0 75C0 50 0 25 0 12.5L0 0Z" fill="#95bea7"></path><path d="M333 0L314.3 12.5C295.7 25 258.3 50 258 75C257.7 100 294.3 125 309.2 150C324 175 317 200 310.8 225C304.7 250 299.3 275 287.5 300C275.7 325 257.3 350 257.3 375C257.3 400 275.7 425 272.8 450C270 475 246 500 237.2 525C228.3 550 234.7 575 237.8 587.5L241 600L0 600L0 587.5C0 575 0 550 0 525C0 500 0 475 0 450C0 425 0 400 0 375C0 350 0 325 0 300C0 275 0 250 0 225C0 200 0 175 0 150C0 125 0 100 0 75C0 50 0 25 0 12.5L0 0Z" fill="#65a79d"></path><path d="M250 0L250 12.5C250 25 250 50 247.2 75C244.3 100 238.7 125 239.8 150C241 175 249 200 255.7 225C262.3 250 267.7 275 258.8 300C250 325 227 350 225.3 375C223.7 400 243.3 425 252.7 450C262 475 261 500 248.2 525C235.3 550 210.7 575 198.3 587.5L186 600L0 600L0 587.5C0 575 0 550 0 525C0 500 0 475 0 450C0 425 0 400 0 375C0 350 0 325 0 300C0 275 0 250 0 225C0 200 0 175 0 150C0 125 0 100 0 75C0 50 0 25 0 12.5L0 0Z" fill="#318f98"></path><path d="M199 0L199.7 12.5C200.3 25 201.7 50 197.3 75C193 100 183 125 175.5 150C168 175 163 200 160.8 225C158.7 250 159.3 275 161.7 300C164 325 168 350 176.7 375C185.3 400 198.7 425 206.2 450C213.7 475 215.3 500 216.5 525C217.7 550 218.3 575 218.7 587.5L219 600L0 600L0 587.5C0 575 0 550 0 525C0 500 0 475 0 450C0 425 0 400 0 375C0 350 0 325 0 300C0 275 0 250 0 225C0 200 0 175 0 150C0 125 0 100 0 75C0 50 0 25 0 12.5L0 0Z" fill="#007593"></path><path d="M113 0L117.3 12.5C121.7 25 130.3 50 128.3 75C126.3 100 113.7 125 113.7 150C113.7 175 126.3 200 125.8 225C125.3 250 111.7 275 112 300C112.3 325 126.7 350 128.7 375C130.7 400 120.3 425 113.2 450C106 475 102 500 109.2 525C116.3 550 134.7 575 143.8 587.5L153 600L0 600L0 587.5C0 575 0 550 0 525C0 500 0 475 0 450C0 425 0 400 0 375C0 350 0 325 0 300C0 275 0 250 0 225C0 200 0 175 0 150C0 125 0 100 0 75C0 50 0 25 0 12.5L0 0Z" fill="#005a89"></path><path d="M70 0L70.5 12.5C71 25 72 50 72.8 75C73.7 100 74.3 125 76 150C77.7 175 80.3 200 83.7 225C87 250 91 275 90 300C89 325 83 350 83 375C83 400 89 425 88.5 450C88 475 81 500 77.7 525C74.3 550 74.7 575 74.8 587.5L75 600L0 600L0 587.5C0 575 0 550 0 525C0 500 0 475 0 450C0 425 0 400 0 375C0 350 0 325 0 300C0 275 0 250 0 225C0 200 0 175 0 150C0 125 0 100 0 75C0 50 0 25 0 12.5L0 0Z" fill="#083d77"></path></svg>