<svg id="visual" viewBox="0 0 900 600" width="900" height="600" xmlns="http://www.w3.org/2000/svg" xmlns:xlink="http://www.w3.org/1999/xlink" version="1.1"><path d="M448 0L437.5 12.5C427 25 406 50 392.5 75C379 100 373 125 385 150C397 175 427 200 434.2 225C441.3 250 425.7 275 427.8 300C430 325 450 350 465.7 375C481.3 400 492.7 425 475 450C457.3 475 410.7 500 401.3 525C392 550 420 575 434 587.5L448 600L0 600L0 587.5C0 575 0 550 0 525C0 500 0 475 0 450C0 425 0 400 0 375C0 350 0 325 0 300C0 275 0 250 0 225C0 200 0 175 0 150C0 125 0 100 0 75C0 50 0 25 0 12.5L0 0Z" fill="#ebebd3"></path><path d="M366 0L364.2 12.5C362.3 25 358.7 50 350 75C341.3 100 327.7 125 324 150C320.3 175 326.7 200 324.2 225C321.7 250 310.3 275 316.3 300C322.3 325 345.7 350 351 375C356.3 400 343.7 425 330.5 450C317.3 475 303.7 500 298 525C292.3 550 294.7 575 295.8 587.5L297 600L0 600L0 587.5C0 575 0 550 0 525C0 500 0 475 0 450C0 425 0 400 0 375C0 350 0 325 0 300C0 275 0 250 0 225C0 200 0 175 0 150C0 125 0 100 0 75C0 50 0 25 0 12.5L0 0Z" fill="#7db3a1"></path><path d="M293 0L293.2 12.5C293.3 25 293.7 50 297.3 75C301 100 308 125 310.2 150C312.3 175 309.7 200 305.2 225C300.7 250 294.3 275 293.3 300C292.3 325 296.7 350 290.7 375C284.7 400 268.3 425 282.2 450C296 475 340 500 348.5 525C357 550 330 575 316.5 587.5L303 600L0 600L0 587.5C0 575 0 550 0 525C0 500 0 475 0 450C0 425 0 400 0 375C0 350 0 325 0 300C0 275 0 250 0 225C0 200 0 175 0 150C0 125 0 100 0 75C0 50 0 25 0 12.5L0 0Z" fill="#007593"></path><path d="M249 0L248.8 12.5C248.7 25 248.3 50 251 75C253.7 100 259.3 125 258.5 150C257.7 175 250.3 200 253 225C255.7 250 268.3 275 264.8 300C261.3 325 241.7 350 240.3 375C239 400 256 425 267 450C278 475 283 500 282.3 525C281.7 550 275.3 575 272.2 587.5L269 600L0 600L0 587.5C0 575 0 550 0 525C0 500 0 475 0 450C0 425 0 400 0 375C0 350 0 325 0 300C0 275 0 250 0 225C0 200 0 175 0 150C0 125 0 100 0 75C0 50 0 25 0 12.5L0 0Z" fill="#083d77"></path><path d="M178 0L192.5 12.5C207 25 236 50 243.3 75C250.7 100 236.3 125 237.8 150C239.3 175 256.7 200 256.5 225C256.3 250 238.7 275 223.2 300C207.7 325 194.3 350 186.3 375C178.3 400 175.7 425 179.8 450C184 475 195 500 199.3 525C203.7 550 201.3 575 200.2 587.5L199 600L0 600L0 587.5C0 575 0 550 0 525C0 500 0 475 0 450C0 425 0 400 0 375C0 350 0 325 0 300C0 275 0 250 0 225C0 200 0 175 0 150C0 125 0 100 0 75C0 50 0 25 0 12.5L0 0Z" fill="#083d77"></path><path d="M162 0L169.3 12.5C176.7 25 191.3 50 187.5 75C183.7 100 161.3 125 162.2 150C163 175 187 200 190.5 225C194 250 177 275 175.8 300C174.7 325 189.3 350 190.7 375C192 400 180 425 171.2 450C162.3 475 156.7 500 155.8 525C155 550 159 575 161 587.5L163 600L0 600L0 587.5C0 575 0 550 0 525C0 500 0 475 0 450C0 425 0 400 0 375C0 350 0 325 0 300C0 275 0 250 0 225C0 200 0 175 0 150C0 125 0 100 0 75C0 50 0 25 0 12.5L0 0Z" fill="#007593"></path><path d="M102 0L102.7 12.5C103.3 25 104.7 50 104.2 75C103.7 100 101.3 125 101.7 150C102 175 105 200 114.5 225C124 250 140 275 147.5 300C155 325 154 350 153 375C152 400 151 425 152.2 450C153.3 475 156.7 500 154.7 525C152.7 550 145.3 575 141.7 587.5L138 600L0 600L0 587.5C0 575 0 550 0 525C0 500 0 475 0 450C0 425 0 400 0 375C0 350 0 325 0 300C0 275 0 250 0 225C0 200 0 175 0 150C0 125 0 100 0 75C0 50 0 25 0 12.5L0 0Z" fill="#7db3a1"></path><path d="M94 0L93 12.5C92 25 90 50 90.3 75C90.7 100 93.3 125 88.5 150C83.7 175 71.3 200 65 225C58.7 250 58.3 275 64.3 300C70.3 325 82.7 350 87 375C91.3 400 87.7 425 84.5 450C81.3 475 78.7 500 78.7 525C78.7 550 81.3 575 82.7 587.5L84 600L0 600L0 587.5C0 575 0 550 0 525C0 500 0 475 0 450C0 425 0 400 0 375C0 350 0 325 0 300C0 275 0 250 0 225C0 200 0 175 0 150C0 125 0 100 0 75C0 50 0 25 0 12.5L0 0Z" fill="#ebebd3"></path></svg>