<svg id="visual" viewBox="0 0 900 600" width="900" height="600" xmlns="http://www.w3.org/2000/svg" xmlns:xlink="http://www.w3.org/1999/xlink" version="1.1"><path d="M467 0L463.5 12.5C460 25 453 50 440.7 75C428.3 100 410.7 125 397.3 150C384 175 375 200 376 225C377 250 388 275 391.7 300C395.3 325 391.7 350 390.7 375C389.7 400 391.3 425 396 450C400.7 475 408.3 500 425 525C441.7 550 467.3 575 480.2 587.5L493 600L0 600L0 587.5C0 575 0 550 0 525C0 500 0 475 0 450C0 425 0 400 0 375C0 350 0 325 0 300C0 275 0 250 0 225C0 200 0 175 0 150C0 125 0 100 0 75C0 50 0 25 0 12.5L0 0Z" fill="#083d77"></path><path d="M299 0L316.2 12.5C333.3 25 367.7 50 375.5 75C383.3 100 364.7 125 362.5 150C360.3 175 374.7 200 377.3 225C380 250 371 275 369.7 300C368.3 325 374.7 350 383 375C391.3 400 401.7 425 387 450C372.3 475 332.7 500 316.3 525C300 550 307 575 310.5 587.5L314 600L0 600L0 587.5C0 575 0 550 0 525C0 500 0 475 0 450C0 425 0 400 0 375C0 350 0 325 0 300C0 275 0 250 0 225C0 200 0 175 0 150C0 125 0 100 0 75C0 50 0 25 0 12.5L0 0Z" fill="#088296"></path><path d="M283 0L300.7 12.5C318.3 25 353.7 50 364 75C374.3 100 359.7 125 359.3 150C359 175 373 200 364.5 225C356 250 325 275 315.3 300C305.7 325 317.3 350 316 375C314.7 400 300.3 425 302.3 450C304.3 475 322.7 500 333.8 525C345 550 349 575 351 587.5L353 600L0 600L0 587.5C0 575 0 550 0 525C0 500 0 475 0 450C0 425 0 400 0 375C0 350 0 325 0 300C0 275 0 250 0 225C0 200 0 175 0 150C0 125 0 100 0 75C0 50 0 25 0 12.5L0 0Z" fill="#95bea7"></path><path d="M275 0L277 12.5C279 25 283 50 275.7 75C268.3 100 249.7 125 257.7 150C265.7 175 300.3 200 311.3 225C322.3 250 309.7 275 290.7 300C271.7 325 246.3 350 237.7 375C229 400 237 425 242.8 450C248.7 475 252.3 500 249.2 525C246 550 236 575 231 587.5L226 600L0 600L0 587.5C0 575 0 550 0 525C0 500 0 475 0 450C0 425 0 400 0 375C0 350 0 325 0 300C0 275 0 250 0 225C0 200 0 175 0 150C0 125 0 100 0 75C0 50 0 25 0 12.5L0 0Z" fill="#ebebd3"></path><path d="M206 0L206.2 12.5C206.3 25 206.7 50 204.7 75C202.7 100 198.3 125 201.5 150C204.7 175 215.3 200 212.7 225C210 250 194 275 190.8 300C187.7 325 197.3 350 212.8 375C228.3 400 249.7 425 257.2 450C264.7 475 258.3 500 249.3 525C240.3 550 228.7 575 222.8 587.5L217 600L0 600L0 587.5C0 575 0 550 0 525C0 500 0 475 0 450C0 425 0 400 0 375C0 350 0 325 0 300C0 275 0 250 0 225C0 200 0 175 0 150C0 125 0 100 0 75C0 50 0 25 0 12.5L0 0Z" fill="#ebebd3"></path><path d="M199 0L193.8 12.5C188.7 25 178.3 50 177.8 75C177.3 100 186.7 125 193.2 150C199.7 175 203.3 200 194.7 225C186 250 165 275 153.7 300C142.3 325 140.7 350 140.3 375C140 400 141 425 142.2 450C143.3 475 144.7 500 146.5 525C148.3 550 150.7 575 151.8 587.5L153 600L0 600L0 587.5C0 575 0 550 0 525C0 500 0 475 0 450C0 425 0 400 0 375C0 350 0 325 0 300C0 275 0 250 0 225C0 200 0 175 0 150C0 125 0 100 0 75C0 50 0 25 0 12.5L0 0Z" fill="#95bea7"></path><path d="M118 0L124.7 12.5C131.3 25 144.7 50 147.8 75C151 100 144 125 142.3 150C140.7 175 144.3 200 142.2 225C140 250 132 275 131.8 300C131.7 325 139.3 350 142.5 375C145.7 400 144.3 425 143.8 450C143.3 475 143.7 500 146.5 525C149.3 550 154.7 575 157.3 587.5L160 600L0 600L0 587.5C0 575 0 550 0 525C0 500 0 475 0 450C0 425 0 400 0 375C0 350 0 325 0 300C0 275 0 250 0 225C0 200 0 175 0 150C0 125 0 100 0 75C0 50 0 25 0 12.5L0 0Z" fill="#088296"></path><path d="M88 0L87 12.5C86 25 84 50 86.3 75C88.7 100 95.3 125 91.3 150C87.3 175 72.7 200 65.8 225C59 250 60 275 65.7 300C71.3 325 81.7 350 83.8 375C86 400 80 425 75.5 450C71 475 68 500 72.8 525C77.7 550 90.3 575 96.7 587.5L103 600L0 600L0 587.5C0 575 0 550 0 525C0 500 0 475 0 450C0 425 0 400 0 375C0 350 0 325 0 300C0 275 0 250 0 225C0 200 0 175 0 150C0 125 0 100 0 75C0 50 0 25 0 12.5L0 0Z" fill="#083d77"></path></svg>