<svg id="visual" viewBox="0 0 1000 300" width="1000" height="300" xmlns="http://www.w3.org/2000/svg" xmlns:xlink="http://www.w3.org/1999/xlink" version="1.1"><g transform="translate(1002.2771020482385 238.91901254086753)"><path d="M321.7 -309.7C408.5 -310.5 464.7 -201.2 460.6 -99.7C456.4 1.8 391.9 95.4 309.3 122.4C226.8 149.5 126.2 110 37.5 172.5C-51.3 234.9 -128.3 399.4 -201.4 427.4C-274.5 455.4 -343.8 346.9 -398.1 237.4C-452.3 127.8 -491.6 17.1 -444 -48.1C-396.5 -113.2 -262.2 -132.8 -173.7 -131.7C-85.3 -130.6 -42.6 -108.8 37.4 -153.4C117.4 -197.9 234.8 -308.9 321.7 -309.7" fill="#EBEBD3"></path></g></svg>