<svg id="visual" viewBox="0 0 900 600" width="900" height="600" xmlns="http://www.w3.org/2000/svg" xmlns:xlink="http://www.w3.org/1999/xlink" version="1.1"><path d="M382 0L391.8 12.5C401.7 25 421.3 50 428 75C434.7 100 428.3 125 409.7 150C391 175 360 200 345.5 225C331 250 333 275 337.3 300C341.7 325 348.3 350 356.7 375C365 400 375 425 400.3 450C425.7 475 466.3 500 484.8 525C503.3 550 499.7 575 497.8 587.5L496 600L0 600L0 587.5C0 575 0 550 0 525C0 500 0 475 0 450C0 425 0 400 0 375C0 350 0 325 0 300C0 275 0 250 0 225C0 200 0 175 0 150C0 125 0 100 0 75C0 50 0 25 0 12.5L0 0Z" fill="#083d77"></path><path d="M420 0L404.7 12.5C389.3 25 358.7 50 358.5 75C358.3 100 388.7 125 403.5 150C418.3 175 417.7 200 403.5 225C389.3 250 361.7 275 340.2 300C318.7 325 303.3 350 304.7 375C306 400 324 425 338.2 450C352.3 475 362.7 500 376.3 525C390 550 407 575 415.5 587.5L424 600L0 600L0 587.5C0 575 0 550 0 525C0 500 0 475 0 450C0 425 0 400 0 375C0 350 0 325 0 300C0 275 0 250 0 225C0 200 0 175 0 150C0 125 0 100 0 75C0 50 0 25 0 12.5L0 0Z" fill="#005a89"></path><path d="M254 0L276.7 12.5C299.3 25 344.7 50 350.5 75C356.3 100 322.7 125 312.2 150C301.7 175 314.3 200 308.8 225C303.3 250 279.7 275 281.7 300C283.7 325 311.3 350 312.7 375C314 400 289 425 288.7 450C288.3 475 312.7 500 315.7 525C318.7 550 300.3 575 291.2 587.5L282 600L0 600L0 587.5C0 575 0 550 0 525C0 500 0 475 0 450C0 425 0 400 0 375C0 350 0 325 0 300C0 275 0 250 0 225C0 200 0 175 0 150C0 125 0 100 0 75C0 50 0 25 0 12.5L0 0Z" fill="#007593"></path><path d="M289 0L290.2 12.5C291.3 25 293.7 50 286 75C278.3 100 260.7 125 252 150C243.3 175 243.7 200 257.3 225C271 250 298 275 308.3 300C318.7 325 312.3 350 311.5 375C310.7 400 315.3 425 309.2 450C303 475 286 500 268.5 525C251 550 233 575 224 587.5L215 600L0 600L0 587.5C0 575 0 550 0 525C0 500 0 475 0 450C0 425 0 400 0 375C0 350 0 325 0 300C0 275 0 250 0 225C0 200 0 175 0 150C0 125 0 100 0 75C0 50 0 25 0 12.5L0 0Z" fill="#318f98"></path><path d="M269 0L260.8 12.5C252.7 25 236.3 50 224.3 75C212.3 100 204.7 125 203 150C201.3 175 205.7 200 211 225C216.3 250 222.7 275 232.7 300C242.7 325 256.3 350 251 375C245.7 400 221.3 425 207.7 450C194 475 191 500 187.5 525C184 550 180 575 178 587.5L176 600L0 600L0 587.5C0 575 0 550 0 525C0 500 0 475 0 450C0 425 0 400 0 375C0 350 0 325 0 300C0 275 0 250 0 225C0 200 0 175 0 150C0 125 0 100 0 75C0 50 0 25 0 12.5L0 0Z" fill="#65a79d"></path><path d="M158 0L158 12.5C158 25 158 50 154.2 75C150.3 100 142.7 125 148.7 150C154.7 175 174.3 200 181.3 225C188.3 250 182.7 275 173.8 300C165 325 153 350 146 375C139 400 137 425 147.3 450C157.7 475 180.3 500 189.3 525C198.3 550 193.7 575 191.3 587.5L189 600L0 600L0 587.5C0 575 0 550 0 525C0 500 0 475 0 450C0 425 0 400 0 375C0 350 0 325 0 300C0 275 0 250 0 225C0 200 0 175 0 150C0 125 0 100 0 75C0 50 0 25 0 12.5L0 0Z" fill="#95bea7"></path><path d="M161 0L158.2 12.5C155.3 25 149.7 50 147.5 75C145.3 100 146.7 125 147 150C147.3 175 146.7 200 147.5 225C148.3 250 150.7 275 150 300C149.3 325 145.7 350 139 375C132.3 400 122.7 425 116.8 450C111 475 109 500 107.3 525C105.7 550 104.3 575 103.7 587.5L103 600L0 600L0 587.5C0 575 0 550 0 525C0 500 0 475 0 450C0 425 0 400 0 375C0 350 0 325 0 300C0 275 0 250 0 225C0 200 0 175 0 150C0 125 0 100 0 75C0 50 0 25 0 12.5L0 0Z" fill="#c2d4b9"></path><path d="M105 0L103.8 12.5C102.7 25 100.3 50 95.5 75C90.7 100 83.3 125 77.3 150C71.3 175 66.7 200 65.5 225C64.3 250 66.7 275 72.3 300C78 325 87 350 92.3 375C97.7 400 99.3 425 94.7 450C90 475 79 500 74.7 525C70.3 550 72.7 575 73.8 587.5L75 600L0 600L0 587.5C0 575 0 550 0 525C0 500 0 475 0 450C0 425 0 400 0 375C0 350 0 325 0 300C0 275 0 250 0 225C0 200 0 175 0 150C0 125 0 100 0 75C0 50 0 25 0 12.5L0 0Z" fill="#ebebd3"></path></svg>